# AST/ASF file generated using VICON BodyLanguage
# -----------------------------------------------
:version 1.10
:name VICON
:units
  mass 1.0
  length 0.45
  angle deg
:documentation
   .ast/.asf automatically generated from VICON data using
   VICON BodyBuilder and BodyLanguage model FoxedUp or BRILLIANT.MOD
:root
   order TX TY TZ RX RY RZ
   axis XYZ
   position 0 0 0  
   orientation 0 0 0 
:bonedata
  begin
     id 1 
     name lhipjoint
     direction 0.707368 -0.647095 0.284426 
     length 2.60678 
     axis 0 0 0  XYZ
  end
  begin
     id 2 
     name lfemur
     direction 0.34202 -0.939693 0  
     length 6.63812  
     axis 0 0 20  XYZ
    dof rx ry rz
    limits (-160.0 20.0)
           (-70.0 70.0)
           (-60.0 70.0)
  end
  begin
     id 3 
     name ltibia
     direction 0.34202 -0.939693 0   
     length 7.51178   
     axis 0 0 20   XYZ
    dof rx
    limits (-10.0 170.0)
  end
  begin
     id 4 
     name lfoot
     direction 0.121251 -0.333133 0.935051   
     length 1.83716   
     axis -90 7.62852e-016 20   XYZ
    dof rx rz
    limits (-45.0 90.0)
           (-70.0 20.0)
  end
  begin
     id 5 
     name ltoes
     direction 1.53611e-011 -4.21962e-011 1   
     length 0.916133   
     axis -90 7.62852e-016 20   XYZ
    dof rx
    limits (-90.0 20.0)
  end
  begin
     id 6 
     name rhipjoint
     direction -0.692419 -0.660507 0.290321   
     length 2.55385  
     axis 0 0 0  XYZ 
  end
  begin
     id 7 
     name rfemur
     direction -0.34202 -0.939693 0   
     length 7.29079   
     axis 0 0 -20   XYZ
    dof rx ry rz
    limits (-160.0 20.0)
           (-70.0 70.0)
           (-70.0 60.0)
  end
  begin
     id 8 
     name rtibia
     direction -0.34202 -0.939693 0   
     length 7.47143   
     axis 0 0 -20   XYZ
    dof rx
    limits (-10.0 170.0)
 end
 begin
     id 9 
     name rfoot
     direction -0.119907 -0.329441 0.936532   
     length 1.79439  
     axis -90 -7.62852e-016 -20   XYZ
    dof rx rz
    limits (-45.0 90.0)
           (-20.0 70.0)
  end
  begin
     id 10 
     name rtoes
     direction -1.53571e-011 -4.21961e-011 1   
     length 0.896039   
     axis -90 -7.62852e-016 -20   XYZ
    dof rx
    limits (-90.0 20.0)
  end
  begin
     id 11 
     name lowerback
     direction 0.0367721 0.992912 -0.113016   
     length 1.73542   
     axis 0 0 0   XYZ
    dof rx ry rz
    limits (-20.0 45.0)
           (-30.0 30.0)
           (-30.0 30.0)
  end
  begin
     id 12 
     name upperback
     direction -0.000314626 0.990678 0.136227   
     length 1.7514   
     axis 0 0 0   XYZ
    dof rx ry rz
    limits (-20.0 45.0)
           (-30.0 30.0)
           (-30.0 30.0)
  end
  begin
     id 13 
     name thorax
     direction -0.0226159 0.981151 0.191917   
     length 1.71471   
     axis 0 0 0   XYZ
    dof rx ry rz
    limits (-20.0 45.0)
           (-30.0 30.0)
           (-30.0 30.0)
  end
  begin
     id 14 
     name lowerneck
     direction 0.0219333 0.998071 0.0580739   
     length 1.65882   
     axis 0 0 0   XYZ
    dof rx ry rz
    limits (-20.0 45.0)
           (-30.0 30.0)
           (-30.0 30.0)
  end
  begin
     id 15 
     name upperneck
     direction 0.0384529 0.980058 -0.194957   
     length 1.6612   
     axis 0 0 0   XYZ
    dof rx ry rz
    limits (-20.0 45.0)
           (-30.0 30.0)
           (-30.0 30.0)
  end
  begin
     id 16
     name head
     direction 0.00592123 0.997421 -0.0715234  
     length 1.68077  
     axis 0 0 0   XYZ
    dof rx ry rz
    limits (-20.0 45.0)
           (-30.0 30.0)
           (-30.0 30.0)
  end
  begin
     id 17 
     name lclavicle
     direction 0.904803 0.417826 0.0821728  
     length 3.42227  
     axis 0 0 0   XYZ
    dof ry rz
    limits (-20.0 10.0)
           (0.0 20.0)
  end
  begin
     id 18 
     name lhumerus
     direction 1 -4.48965e-011 -2.68786e-027   
     length 5.11878   
     axis -180 -30 -90   XYZ
    dof rx ry rz
    limits (-60.0 90.0)
           (-90.0 90.0)
           (-90.0 90.0)
  end
  begin
     id 19
     name lradius
     direction 1 -4.48965e-011 2.61168e-028   
     length 3.59971   
     axis -180 -30 -90   XYZ
    dof rx
    limits (-10.0 170.0)
  end
  begin
     id 20
     name lwrist
     direction 1 -4.48965e-011 1.58672e-027   
     length 1.79985   
     axis -1.65735e-015 90 90   XYZ
    dof ry
    limits (-180.0 0.0)
 end
  begin
     id 21 
     name lhand
     direction 1 -4.48942e-011 3.17344e-027   
     length 0.62877   
     axis -2.02492e-015 90 90   XYZ
    dof rx rz
    limits (-90.0 90.0)
           (-45.0 45.0)
  end
  begin
     id 22 
     name lfingers
     direction 1 -4.49011e-011 6.34687e-027   
     length 0.506931   
     axis -4.04985e-015 90 90   XYZ
    dof rx
    limits (0.0 90.0)
  end
  begin
     id 23
     name lthumb
     direction 0.707107 -6.34982e-011 0.707107   
     length 0.727854   
     axis -90 45 2.85299e-015   XYZ
    dof rx rz
    limits (-45.0 45.0)
           (-45.0 45.0)
  end
  begin
     id 24 
     name rclavicle
     direction -0.945647 0.32488 0.0143075   
     length 3.52737  
     axis 0 0 0   XYZ 
    dof ry rz
    limits (-10.0 20.0)
           (-20.0 0.0)
  end
  begin
     id 25 
     name rhumerus
     direction -1 -4.48962e-011 1.92182e-027  
     length 5.4902   
     axis -180 30 90   XYZ
    dof rx ry rz
    limits (-90.0 60.0)
           (-90.0 90.0)
           (-90.0 90.0)
  end
  begin
     id 26 
     name rradius
     direction -1 -4.48967e-011 -5.97193e-028   
     length 3.20659   
     axis -180 30 90   XYZ
    dof rx
    limits (-10.0 170.0)
  end
  begin
     id 27 
     name rwrist
     direction -1 -4.48964e-011 1.58672e-027   
     length 1.6033   
     axis -1.65735e-015 -90 -90   XYZ
    dof ry
    limits (-180.0 0.0)
  end
  begin
     id 28
     name rhand
     direction -1 -4.49006e-011 3.17344e-027   
     length 0.691885   
     axis -2.02492e-015 -90 -90   XYZ
    dof rx rz
    limits (-90.0 90.0)
           (-45.0 45.0)
  end
  begin
     id 29
     name rfingers
     direction -1 -4.48908e-011 6.34687e-027   
     length 0.557815   
     axis -4.04985e-015 -90 -90   XYZ
    dof rx
    limits (0.0 90.0)
  end
  begin
     id 30
     name rthumb
     direction -0.707107 -6.34999e-011 0.707107   
     length 0.800915   
     axis -90 -45 -2.85299e-015   XYZ
    dof rx rz
    limits (-45.0 45.0)
           (-45.0 45.0)
  end
:hierarchy
  begin
    root lhipjoint rhipjoint lowerback
    lhipjoint lfemur
    lfemur ltibia
    ltibia lfoot
    lfoot ltoes
    rhipjoint rfemur
    rfemur rtibia
    rtibia rfoot
    rfoot rtoes
    lowerback upperback
    upperback thorax
    thorax lowerneck lclavicle rclavicle
    lowerneck upperneck
    upperneck head
    lclavicle lhumerus
    lhumerus lradius
    lradius lwrist
    lwrist lhand lthumb
    lhand lfingers
    rclavicle rhumerus
    rhumerus rradius
    rradius rwrist
    rwrist rhand rthumb
    rhand rfingers
  end

#!OML:ASF I:\Actors\actors\Patient Classification 1\Patient 1\Session 1\Subject1.ASF
:FULLY-SPECIFIED
:DEGREES
1
root -0.388844 17.4761 7.34698 5.78596 -0.0272801 -7.63517
lowerback 1.31616 1.59787 5.88458
upperback -8.99822 2.63189 0.809718
thorax -10.1018 0.843121 -2.6771
lowerneck -2.98183 -11.6585 -9.69571
upperneck 21.319 -17.3645 9.33353
head 8.81599 -8.29605 3.02456
rclavicle -1.23246e-014 -2.14687e-014
rhumerus -41.8925 -15.9167 -81.4317
rradius 22.7855
rwrist 40.6507
rhand 2.20615 -33.6407
rfingers 7.12502
rthumb 27.7017 -61.6203
lclavicle -1.23246e-014 -2.14687e-014
lhumerus -41.4326 3.25523 86.9816
lradius 21.892
lwrist -21.8654
lhand -14.9946 -11.6274
lfingers 7.12502
lthumb 11.1699 18.0553
rfemur 0.752469 24.2546 26.7025
rtibia 1.5421
rfoot -12.1192 -22.9077
rtoes 3.70064
lfemur 8.37607 -40.3939 -15.9763
ltibia -4.61326
lfoot -13.0833 45.6744
ltoes 2.76206
2
root -0.389318 17.4762 7.34796 5.75346 0.0249978 -7.62148
lowerback 1.31147 1.58192 5.87594
upperback -8.98063 2.60709 0.791424
thorax -10.0806 0.831807 -2.68913
lowerneck -2.97114 -11.6637 -9.7003
upperneck 21.2603 -17.383 9.40807
head 8.80334 -8.30058 3.04865
rclavicle 2.61402e-014 -6.36111e-015
rhumerus -41.8891 -16.0341 -81.3774
rradius 22.7659
rwrist 40.7695
rhand 2.2361 -33.5815
rfingers 7.12502
rthumb 27.7304 -61.5565
lclavicle 2.61402e-014 -6.36111e-015
lhumerus -41.4067 3.1989 86.9777
lradius 21.878
lwrist -21.8552
lhand -15.0474 -11.6601
lfingers 7.12502
lthumb 11.1191 18.0253
rfemur 0.837311 24.2901 26.7251
rtibia 1.48617
rfoot -12.1467 -23.0022
rtoes 3.69834
lfemur 8.43553 -40.4901 -16.0346
ltibia -4.6153
lfoot -13.27 45.7239
ltoes 2.92995
3
root -0.390184 17.4777 7.35043 5.6624 0.152718 -7.585
lowerback 1.35177 1.53119 5.82467
upperback -8.95313 2.53718 0.792013
thorax -10.0811 0.802336 -2.65462
lowerneck -2.95348 -11.6636 -9.66815
upperneck 21.2013 -17.3781 9.39867
head 8.77534 -8.29874 3.04346
rclavicle -1.78906e-014 1.39149e-014
rhumerus -41.8747 -16.1013 -81.3163
rradius 22.7131
rwrist 40.8675
rhand 2.20768 -33.5288
rfingers 7.12502
rthumb 27.7032 -61.5083
lclavicle -1.78906e-014 1.39149e-014
lhumerus -41.4048 3.18841 86.9797
lradius 21.8655
lwrist -21.9094
lhand -15.0489 -11.6768
lfingers 7.12502
lthumb 11.1176 18.0087
rfemur 1.04464 24.4278 26.7814
rtibia 1.37669
rfoot -12.2015 -23.2667
rtoes 3.89764
lfemur 8.51767 -40.4801 -16.1086
ltibia -4.62004
lfoot -13.1208 45.6159
ltoes 2.6184
4
root -0.390793 17.478 7.35226 5.6268 0.215339 -7.56397
lowerback 1.29622 1.53 5.83006
upperback -8.90418 2.52701 0.763496
thorax -9.99177 0.799351 -2.68447
lowerneck -2.91711 -11.6878 -9.62879
upperneck 21.0923 -17.4074 9.40716
head 8.73156 -8.31263 3.04047
rclavicle -2.18663e-015 -6.75868e-015
rhumerus -41.8025 -16.1737 -81.3215
rradius 22.6766
rwrist 40.8507
rhand 2.15486 -33.5449
rfingers 7.12502
rthumb 27.6527 -61.5324
lclavicle -2.18663e-015 -6.75868e-015
lhumerus -41.323 3.13326 86.9838
lradius 21.8312
lwrist -21.9539
lhand -15.0117 -11.6719
lfingers 7.12502
lthumb 11.1535 18.0117
rfemur 1.14165 24.4885 26.8054
rtibia 1.32347
rfoot -12.1989 -23.4001
rtoes 3.96176
lfemur 8.55965 -40.4637 -16.1438
ltibia -4.64124
lfoot -12.9164 45.5614
ltoes 2.22458
5
root -0.390881 17.4779 7.35281 5.62814 0.183143 -7.55371
lowerback 1.24632 1.55294 5.81666
upperback -8.88349 2.55155 0.755708
thorax -9.93611 0.814304 -2.68546
lowerneck -2.83256 -11.6928 -9.65661
upperneck 20.9809 -17.4145 9.4523
head 8.68582 -8.32015 3.06527
rclavicle -8.34896e-015 2.18663e-014
rhumerus -41.7752 -16.1084 -81.3792
rradius 22.6937
rwrist 40.7044
rhand 2.13158 -33.5964
rfingers 7.12502
rthumb 27.6304 -61.5875
lclavicle -8.34896e-015 2.18663e-014
lhumerus -41.2919 3.11975 87.0044
lradius 21.8218
lwrist -21.9191
lhand -15.0024 -11.6343
lfingers 7.12502
lthumb 11.1624 18.0488
rfemur 1.13309 24.4677 26.7886
rtibia 1.33594
rfoot -12.1735 -23.3609
rtoes 3.83492
lfemur 8.60786 -40.5131 -16.1954
ltibia -4.65364
lfoot -12.9222 45.6374
ltoes 2.26294
6
root -0.390853 17.4782 7.35263 5.62969 0.151524 -7.54516
lowerback 1.23481 1.56084 5.79795
upperback -8.87942 2.56017 0.75968
thorax -9.92445 0.820695 -2.67113
lowerneck -2.76839 -11.6948 -9.67684
upperneck 20.8856 -17.4081 9.45047
head 8.64268 -8.32349 3.0738
rclavicle -1.97791e-014 3.61788e-014
rhumerus -41.7764 -16.0385 -81.4277
rradius 22.7243
rwrist 40.5801
rhand 2.16577 -33.66
rfingers 7.12502
rthumb 27.6631 -61.6459
lclavicle -1.97791e-014 3.61788e-014
lhumerus -41.3184 3.1565 86.9959
lradius 21.8725
lwrist -22.0258
lhand -14.9326 -11.5298
lfingers 7.12502
lthumb 11.2298 18.1496
rfemur 1.11202 24.471 26.7706
rtibia 1.36712
rfoot -12.2108 -23.3188
rtoes 3.91482
lfemur 8.61399 -40.4944 -16.2081
ltibia -4.65068
lfoot -13.0488 45.6403
ltoes 2.6269
7
root -0.390131 17.4782 7.35244 5.63287 0.13279 -7.56442
lowerback 1.23068 1.56447 5.83198
upperback -8.87759 2.5669 0.760374
thorax -9.91854 0.821453 -2.68972
lowerneck -2.78799 -11.7144 -9.65575
upperneck 20.8813 -17.4198 9.38008
head 8.63741 -8.33257 3.04497
rclavicle -1.17283e-014 -1.74931e-014
rhumerus -41.7948 -16.1055 -81.404
rradius 22.7392
rwrist 40.6482
rhand 2.23306 -33.6753
rfingers 7.12502
rthumb 27.7275 -61.6508
lclavicle -1.17283e-014 -1.74931e-014
lhumerus -41.3534 3.20699 86.9589
lradius 21.9436
lwrist -22.172
lhand -14.8009 -11.3486
lfingers 7.12502
lthumb 11.3568 18.3239
rfemur 1.09023 24.4597 26.7822
rtibia 1.39567
rfoot -12.2351 -23.2753
rtoes 3.91675
lfemur 8.57927 -40.3889 -16.1537
ltibia -4.65177
lfoot -13.0345 45.5622
ltoes 2.65897
8
root -0.388995 17.4782 7.35239 5.63408 0.108193 -7.53425
lowerback 1.21965 1.57231 5.81612
upperback -8.87281 2.57406 0.745495
thorax -9.90553 0.826013 -2.69696
lowerneck -2.78271 -11.7157 -9.6486
upperneck 20.8515 -17.4197 9.38228
head 8.62576 -8.33268 3.0454
rclavicle -1.68967e-015 -1.78906e-014
rhumerus -41.8109 -16.154 -81.394
rradius 22.7437
rwrist 40.7011
rhand 2.22016 -33.6798
rfingers 7.12502
rthumb 27.7151 -61.6573
lclavicle -1.68967e-015 -1.78906e-014
lhumerus -41.3939 3.23579 86.9408
lradius 22.0039
lwrist -22.1554
lhand -14.7558 -11.2367
lfingers 7.12502
lthumb 11.4003 18.4334
rfemur 1.07662 24.4407 26.7333
rtibia 1.414
rfoot -12.2653 -23.2298
rtoes 3.96467
lfemur 8.55947 -40.3394 -16.1907
ltibia -4.62279
lfoot -12.9363 45.5364
ltoes 2.43954
9
root -0.38842 17.4776 7.35247 5.62809 0.0842263 -7.46426
lowerback 1.21116 1.5757 5.73855
upperback -8.86796 2.57138 0.730619
thorax -9.89634 0.830658 -2.6691
lowerneck -2.70885 -11.6969 -9.6605
upperneck 20.7486 -17.3964 9.433
head 8.58065 -8.3237 3.0729
rclavicle -8.94531e-016 9.14409e-015
rhumerus -41.8295 -16.1612 -81.398
rradius 22.7513
rwrist 40.6477
rhand 2.14451 -33.6748
rfingers 7.12502
rthumb 27.6428 -61.6639
lclavicle -8.94531e-016 9.14409e-015
lhumerus -41.4232 3.26347 86.9366
lradius 22.0112
lwrist -22.1471
lhand -14.8287 -11.2805
lfingers 7.12502
lthumb 11.33 18.3934
rfemur 1.08096 24.4446 26.6485
rtibia 1.41418
rfoot -12.2732 -23.2069
rtoes 4.13707
lfemur 8.55416 -40.3142 -16.2885
ltibia -4.57738
lfoot -12.8828 45.542
ltoes 2.18411
10
root -0.388237 17.4769 7.35282 5.60885 0.0690487 -7.44232
lowerback 1.22308 1.56751 5.6875
upperback -8.86526 2.55888 0.744777
thorax -9.90341 0.829179 -2.62488
lowerneck -2.6851 -11.6789 -9.65933
upperneck 20.7282 -17.3622 9.39796
head 8.56228 -8.31178 3.06758
rclavicle 1.5207e-014 -2.78299e-015
rhumerus -41.8609 -16.1326 -81.3926
rradius 22.7674
rwrist 40.5791
rhand 2.14586 -33.6547
rfingers 7.12502
rthumb 27.6441 -61.6436
lclavicle 1.5207e-014 -2.78299e-015
lhumerus -41.4458 3.29667 86.9605
lradius 21.9643
lwrist -22.0641
lhand -15.0293 -11.4385
lfingers 7.12502
lthumb 11.1365 18.246
rfemur 1.10167 24.4726 26.6352
rtibia 1.41245
rfoot -12.231 -23.2289
rtoes 4.05582
lfemur 8.58309 -40.304 -16.3364
ltibia -4.57216
lfoot -12.902 45.5472
ltoes 2.09573
